#!OML:ASF H:\Dans Jumps\Project 1\Capture day 1\Session 1\subject.ASF
:FULLY-SPECIFIED
:DEGREES
537
root 0.803616 17.7384 6.46214 4.99803 0.420763 -1.89956
lowerback -2.1977 -0.381006 -0.148722
upperback 1.55065 -0.547741 1.69262
thorax 2.84267 -0.293872 1.7975
lowerneck -12.9247 -1.27309 -2.623
upperneck 18.8096 -1.41631 1.08928
head 7.9757 -0.752434 0.646255
rclavicle -8.19987e-015 1.53064e-014
rhumerus -24.5901 -20.7682 -80.8711
rradius 21.2336
rwrist 38.3033
rhand -19.8449 -27.0507
rfingers 7.12502
rthumb 6.48953 -56.9313
lclavicle -8.19987e-015 1.53064e-014
lhumerus -21.607 12.3244 85.7498
lradius 11.5599
lwrist -10.2161
lhand -26.0471 -6.71067
lfingers 7.12502
lthumb 0.50028 23.2685
rfemur -13.0077 -1.74857 20.0159
rtibia 19.5478
rfoot -10.7211 0.293624
rtoes 17.8868
lfemur -11.2759 6.76848 -17.5847
ltibia 18.1103
lfoot -9.53715 2.93104
ltoes -2.87176
538
root 0.804504 17.7382 6.46027 4.98795 0.412206 -1.89588
lowerback -2.19202 -0.388935 -0.144942
upperback 1.54353 -0.558459 1.69828
thorax 2.83252 -0.299129 1.80074
lowerneck -12.9192 -1.26626 -2.61367
upperneck 18.7889 -1.40493 1.06966
head 7.96741 -0.748255 0.639434
rclavicle 9.29318e-015 3.18055e-015
rhumerus -24.6894 -20.7807 -80.7975
rradius 21.2534
rwrist 38.2799
rhand -19.8504 -27.0516
rfingers 7.12502
rthumb 6.48428 -56.9323
lclavicle 9.29318e-015 3.18055e-015
lhumerus -21.639 12.4046 85.6997
lradius 11.5571
lwrist -10.2819
lhand -26.0417 -6.6919
lfingers 7.12502
lthumb 0.505497 23.2872
rfemur -13.01 -1.73675 20.008
rtibia 19.5587
rfoot -10.7203 0.289757
rtoes 17.8903
lfemur -11.27 6.77644 -17.5907
ltibia 18.1105
lfoot -9.53974 2.92698
ltoes -2.86649
539
root 0.805392 17.7379 6.4582 4.9791 0.405068 -1.89072
lowerback -2.18474 -0.399347 -0.144544
upperback 1.54149 -0.572414 1.70321
thorax 2.82682 -0.306104 1.80498
lowerneck -12.9423 -1.25323 -2.59825
upperneck 18.7817 -1.38554 1.04972
head 7.96856 -0.739833 0.632217
rclavicle -5.69021e-015 -5.96354e-016
rhumerus -24.7696 -20.7743 -80.742
rradius 21.2812
rwrist 38.2405
rhand -19.8642 -27.0566
rfingers 7.12502
rthumb 6.47087 -56.9378
lclavicle -5.69021e-015 -5.96354e-016
lhumerus -21.6546 12.4838 85.6538
lradius 11.5627
lwrist -10.3384
lhand -26.0302 -6.66805
lfingers 7.12502
lthumb 0.516613 23.3111
rfemur -13.0144 -1.72497 19.9985
rtibia 19.5704
rfoot -10.7194 0.284436
rtoes 17.896
lfemur -11.2674 6.78383 -17.5984
ltibia 18.1129
lfoot -9.54163 2.92173
ltoes -2.85251
540
root 0.806344 17.7376 6.45611 4.97009 0.401381 -1.88524
lowerback -2.17787 -0.410793 -0.143152
upperback 1.54068 -0.587793 1.70777
thorax 2.82266 -0.313778 1.80822
lowerneck -12.9679 -1.23923 -2.58296
upperneck 18.7754 -1.36475 1.02995
head 7.97039 -0.730737 0.625219
rclavicle -8.4732e-015 1.13307e-014
rhumerus -24.8434 -20.7505 -80.6966
rradius 21.3178
rwrist 38.1833
rhand -19.8848 -27.0723
rfingers 7.12502
rthumb 6.45102 -56.954
lclavicle -8.4732e-015 1.13307e-014
lhumerus -21.6631 12.5425 85.6186
lradius 11.5776
lwrist -10.3669
lhand -26.0161 -6.64361
lfingers 7.12502
lthumb 0.530193 23.3355
rfemur -13.0183 -1.71906 19.9884
rtibia 19.5824
rfoot -10.7193 0.280633
rtoes 17.8909
lfemur -11.2657 6.79089 -17.6068
ltibia 18.1175
lfoot -9.54568 2.914
ltoes -2.83028
541
root 0.807312 17.7373 6.45394 4.96284 0.397609 -1.87924
lowerback -2.17194 -0.422144 -0.141971
upperback 1.53953 -0.603027 1.7118
thorax 2.81867 -0.321376 1.81104
lowerneck -12.9943 -1.22495 -2.56938
upperneck 18.7712 -1.34367 1.01241
head 7.9731 -0.721411 0.619278
rclavicle -9.01985e-015 -9.93923e-016
rhumerus -24.9111 -20.7273 -80.6556
rradius 21.356
rwrist 38.1281
rhand -19.9002 -27.089
rfingers 7.12502
rthumb 6.43616 -56.9713
lclavicle -9.01985e-015 -9.93923e-016
lhumerus -21.668 12.5729 85.5953
lradius 11.6038
lwrist -10.364
lhand -25.9968 -6.62198
lfingers 7.12502
lthumb 0.548822 23.3571
rfemur -13.0246 -1.71342 19.9777
rtibia 19.5944
rfoot -10.7181 0.276525
rtoes 17.8812
lfemur -11.267 6.79866 -17.6161
ltibia 18.1237
lfoot -9.55055 2.90525
ltoes -2.80365
542
root 0.808338 17.737 6.45165 4.95679 0.396162 -1.87495
lowerback -2.16539 -0.434221 -0.138211
upperback 1.53806 -0.619323 1.71645
thorax 2.81402 -0.329457 1.81301
lowerneck -13.0164 -1.21273 -2.56031
upperneck 18.762 -1.32496 0.996877
head 7.9735 -0.713332 0.614513
rclavicle 4.22417e-015 -1.49089e-014
rhumerus -24.9687 -20.7105 -80.6173
rradius 21.3894
rwrist 38.0804
rhand -19.9094 -27.1072
rfingers 7.12502
rthumb 6.42728 -56.9897
lclavicle 4.22417e-015 -1.49089e-014
lhumerus -21.6668 12.5696 85.587
lradius 11.6369
lwrist -10.3225
lhand -25.9967 -6.63405
lfingers 7.12502
lthumb 0.548917 23.345
rfemur -13.0313 -1.71186 19.969
rtibia 19.6042
rfoot -10.7164 0.273258
rtoes 17.8613
lfemur -11.2713 6.80642 -17.624
ltibia 18.1315
lfoot -9.55631 2.8953
ltoes -2.77484
543
root 0.809462 17.7367 6.44932 4.95171 0.396654 -1.87317
lowerback -2.1597 -0.447038 -0.1308
upperback 1.53617 -0.636751 1.72187
thorax 2.80944 -0.338038 1.81366
lowerneck -13.0354 -1.20051 -2.55607
upperneck 18.7511 -1.30613 0.985401
head 7.97282 -0.705139 0.611926
rclavicle -4.4975e-015 1.19271e-014
rhumerus -25.017 -20.6961 -80.5815
rradius 21.4166
rwrist 38.0405
rhand -19.9134 -27.1202
rfingers 7.12502
rthumb 6.42339 -57.0028
lclavicle -4.4975e-015 1.19271e-014
lhumerus -21.6609 12.5385 85.5919
lradius 11.6753
lwrist -10.2518
lhand -26.012 -6.66527
lfingers 7.12502
lthumb 0.534194 23.3138
rfemur -13.0374 -1.71268 19.9626
rtibia 19.6111
rfoot -10.7137 0.270398
rtoes 17.8385
lfemur -11.2781 6.81446 -17.63
ltibia 18.1413
lfoot -9.56274 2.88418
ltoes -2.76114
544
root 0.810654 17.7365 6.44708 4.94655 0.392308 -1.87489
lowerback -2.15075 -0.45887 -0.121379
upperback 1.52928 -0.652909 1.73037
thorax 2.79783 -0.345926 1.81644
lowerneck -13.0456 -1.19433 -2.56696
upperneck 18.7429 -1.29426 0.981896
head 7.97176 -0.700582 0.613788
rclavicle 1.66482e-015 3.97569e-016
rhumerus -25.0684 -20.6694 -80.5447
rradius 21.4437
rwrist 37.9913
rhand -19.9131 -27.125
rfingers 7.12502
rthumb 6.4237 -57.0076
lclavicle 1.66482e-015 3.97569e-016
lhumerus -21.6572 12.4855 85.6096
lradius 11.7136
lwrist -10.158
lhand -26.0417 -6.71093
lfingers 7.12502
lthumb 0.50543 23.2682
rfemur -13.0427 -1.71006 19.9596
rtibia 19.6153
rfoot -10.7106 0.269384
rtoes 17.8238
lfemur -11.2849 6.82342 -17.6327
ltibia 18.1524
lfoot -9.56859 2.87904
ltoes -2.76462
545
root 0.81203 17.7363 6.44497 4.94086 0.382104 -1.87954
lowerback -2.14037 -0.468978 -0.108571
upperback 1.5196 -0.666865 1.7406
thorax 2.78245 -0.35264 1.81923
lowerneck -13.0506 -1.19537 -2.59778
upperneck 18.738 -1.29125 0.993281
head 7.97133 -0.700211 0.622967
rclavicle -3.35449e-015 1.86858e-014
rhumerus -25.1175 -20.6362 -80.5085
rradius 21.4665
rwrist 37.9388
rhand -19.9136 -27.1245
rfingers 7.12502
rthumb 6.42322 -57.0071
lclavicle -3.35449e-015 1.86858e-014
lhumerus -21.6514 12.4246 85.635
lradius 11.747
lwrist -10.0643
lhand -26.0761 -6.76679
lfingers 7.12502
lthumb 0.472232 23.2124
rfemur -13.0466 -1.70956 19.9588
rtibia 19.6172
rfoot -10.7061 0.276489
rtoes 17.8137
lfemur -11.2898 6.83419 -17.6334
ltibia 18.1638
lfoot -9.57339 2.87947
ltoes -2.77976
546
root 0.813396 17.7361 6.44278 4.93491 0.373937 -1.88329
lowerback -2.12874 -0.478803 -0.0962773
upperback 1.50911 -0.680373 1.74995
thorax 2.76552 -0.359124 1.82143
lowerneck -13.0466 -1.19527 -2.62579
upperneck 18.7291 -1.28748 1.0045
head 7.96787 -0.699307 0.631745
rclavicle 4.32357e-015 7.55382e-015
rhumerus -25.1602 -20.6116 -80.4737
rradius 21.4826
rwrist 37.8927
rhand -19.9104 -27.1279
rfingers 7.12502
rthumb 6.42636 -57.0105
lclavicle 4.32357e-015 7.55382e-015
lhumerus -21.6312 12.3471 85.669
lradius 11.7728
lwrist -9.96
lhand -26.094 -6.77252
lfingers 7.12502
lthumb 0.455001 23.2067
rfemur -13.0494 -1.7097 19.9571
rtibia 19.6175
rfoot -10.7001 0.283041
rtoes 17.8157
lfemur -11.2947 6.84305 -17.6349
ltibia 18.1745
lfoot -9.57678 2.87996
ltoes -2.79641
547
root 0.81478 17.7359 6.44059 4.92737 0.365093 -1.88572
lowerback -2.11779 -0.48763 -0.0853488
upperback 1.50088 -0.692504 1.75806
thorax 2.75125 -0.364957 1.82319
lowerneck -13.0392 -1.19503 -2.64522
upperneck 18.7135 -1.2843 1.01018
head 7.96148 -0.698595 0.637211
rclavicle -4.96962e-017 3.77691e-015
rhumerus -25.1918 -20.6075 -80.4395
rradius 21.4886
rwrist 37.8647
rhand -19.9085 -27.1326
rfingers 7.12502
rthumb 6.42819 -57.015
lclavicle -4.96962e-017 3.77691e-015
lhumerus -21.597 12.2345 85.72
lradius 11.8117
lwrist -9.80501
lhand -26.0563 -6.62044
lfingers 7.12502
lthumb 0.491321 23.3587
rfemur -13.0502 -1.70969 19.954
rtibia 19.6171
rfoot -10.6919 0.290738
rtoes 17.8222
lfemur -11.2975 6.85102 -17.6375
ltibia 18.184
lfoot -9.57886 2.88128
ltoes -2.80615
548
root 0.816194 17.7358 6.43824 4.91916 0.362633 -1.88624
lowerback -2.10697 -0.497522 -0.074481
upperback 1.49656 -0.706053 1.76396
thorax 2.7411 -0.371512 1.82264
lowerneck -13.0369 -1.19159 -2.6497
upperneck 18.6935 -1.27766 1.0056
head 7.95429 -0.696149 0.637139
rclavicle 6.21202e-015 -7.95139e-016
rhumerus -25.2086 -20.6263 -80.4083
rradius 21.4854
rwrist 37.8582
rhand -19.9093 -27.1406
rfingers 7.12502
rthumb 6.42737 -57.0231
lclavicle 6.21202e-015 -7.95139e-016
lhumerus -21.5393 12.0832 85.7881
lradius 11.859
lwrist -9.59711
lhand -25.9697 -6.32841
lfingers 7.12502
lthumb 0.575013 23.6506
rfemur -13.0494 -1.7152 19.9492
rtibia 19.6164
rfoot -10.6841 0.296924
rtoes 17.826
lfemur -11.3002 6.85592 -17.642
ltibia 18.1918
lfoot -9.58207 2.87826
ltoes -2.80175
549
root 0.817468 17.7357 6.4358 4.91089 0.36349 -1.88532
lowerback -2.09975 -0.50778 -0.065853
upperback 1.49607 -0.720053 1.7678
thorax 2.73693 -0.378355 1.82117
lowerneck -13.0338 -1.18353 -2.63756
upperneck 18.666 -1.26629 0.991502
head 7.94421 -0.691182 0.631664
rclavicle -8.64713e-015 -1.0138e-014
rhumerus -25.2135 -20.6708 -80.379
rradius 21.4743
rwrist 37.8769
rhand -19.9082 -27.152
rfingers 7.12502
rthumb 6.42841 -57.0345
lclavicle -8.64713e-015 -1.0138e-014
lhumerus -21.4671 11.9053 85.8672
lradius 11.9201
lwrist -9.35199
lhand -25.8388 -5.93351
lfingers 7.12502
lthumb 0.70144 24.0451
rfemur -13.0482 -1.71903 19.9437
rtibia 19.6148
rfoot -10.6762 0.297222
rtoes 17.8261
lfemur -11.3032 6.85987 -17.6469
ltibia 18.1989
lfoot -9.58485 2.87153
ltoes -2.78707
550
root 0.818693 17.7356 6.43332 4.90254 0.36518 -1.88574
lowerback -2.09286 -0.518124 -0.0564213
upperback 1.49703 -0.73421 1.77132
thorax 2.73443 -0.385272 1.81891
lowerneck -13.0391 -1.17244 -2.61049
upperneck 18.641 -1.25128 0.965508
head 7.93619 -0.684585 0.620125
rclavicle -4.00054e-015 1.59028e-014
rhumerus -25.2114 -20.7239 -80.3522
rradius 21.4585
rwrist 37.9069
rhand -19.9095 -27.159
rfingers 7.12502
rthumb 6.42721 -57.0414
lclavicle -4.00054e-015 1.59028e-014
lhumerus -21.3911 11.7233 85.95
lradius 11.9864
lwrist -9.10357
lhand -25.7097 -5.55591
lfingers 7.12502
lthumb 0.826162 24.4222
rfemur -13.0465 -1.72304 19.9401
rtibia 19.6128
rfoot -10.6695 0.296425
rtoes 17.8256
lfemur -11.3068 6.86459 -17.65
ltibia 18.2062
lfoot -9.58893 2.86253
ltoes -2.76283
